<svg width="20" height="20" viewBox="0 0 20 20" fill="none" xmlns="http://www.w3.org/2000/svg">
<g clip-path="url(#clip0_2125_1988)">
<path d="M16.7399 13.2949C17.5384 11.6618 17.7166 9.79419 17.2413 8.03953C16.766 6.28487 15.6695 4.76257 14.1559 3.75577C12.6423 2.74897 10.8145 2.3262 9.01247 2.5661C7.21047 2.806 5.55693 3.69223 4.35941 5.05996C3.16189 6.4277 2.5019 8.18382 2.5022 10.0017C2.50249 11.8196 3.16305 13.5755 4.36102 14.9429C5.55898 16.3102 7.2128 17.1959 9.01488 17.4352C10.817 17.6745 12.6446 17.2512 14.1579 16.2439M16.7389 13.2889V13.2939L17.4999 17.4999L14.1569 16.2439L14.1539 16.2419M8.33393 7.4999C8.32848 7.72218 8.36756 7.94331 8.44886 8.15026C8.53016 8.35721 8.65205 8.54581 8.80733 8.70495C8.96262 8.86408 9.14818 8.99055 9.35308 9.07689C9.55797 9.16324 9.77808 9.20772 10.0004 9.20772C10.2228 9.20772 10.4429 9.16324 10.6478 9.07689C10.8527 8.99055 11.0382 8.86408 11.1935 8.70495C11.3488 8.54581 11.4707 8.35721 11.552 8.15026C11.6333 7.94331 11.6724 7.72218 11.6669 7.4999C11.6669 7.05778 11.4913 6.63377 11.1787 6.32115C10.8661 6.00853 10.442 5.8329 9.99993 5.8329C9.55781 5.8329 9.1338 6.00853 8.82118 6.32115C8.50856 6.63377 8.33393 7.05778 8.33393 7.4999ZM9.99993 10.8329C9.56215 10.8329 9.12866 10.9191 8.72421 11.0867C8.31977 11.2543 7.9523 11.4999 7.64279 11.8095C7.33328 12.1191 7.08779 12.4866 6.92035 12.8911C6.75291 13.2956 6.6668 13.7291 6.66693 14.1669H13.3329C13.3331 13.7291 13.2469 13.2956 13.0795 12.8911C12.9121 12.4866 12.6666 12.1191 12.3571 11.8095C12.0476 11.4999 11.6801 11.2543 11.2756 11.0867C10.8712 10.9191 10.4377 10.8329 9.99993 10.8329Z" stroke="#00E6FF" stroke-width="1.5" stroke-linecap="round" stroke-linejoin="round"/>
</g>
<defs>
<clipPath id="clip0_2125_1988">
<rect width="20" height="20" fill="white"/>
</clipPath>
</defs>
</svg>
