<svg width="20" height="20" viewBox="0 0 20 20" fill="none" xmlns="http://www.w3.org/2000/svg">
<path d="M13 16V14.6667C13 13.9594 12.699 13.2811 12.1632 12.781C11.6273 12.281 10.9006 12 10.1429 12H5.85714C5.09938 12 4.37266 12.281 3.83684 12.781C3.30102 13.2811 3 13.9594 3 14.6667V16" stroke="#FF0000" stroke-width="1.33333" stroke-linecap="round" stroke-linejoin="round"/>
<path d="M8 9C9.65685 9 11 7.88071 11 6.5C11 5.11929 9.65685 4 8 4C6.34315 4 5 5.11929 5 6.5C5 7.88071 6.34315 9 8 9Z" stroke="#FF0000" stroke-width="1.33333" stroke-linecap="round" stroke-linejoin="round"/>
<path d="M17 16V14.6371C16.9996 14.0332 16.8029 13.4465 16.4409 12.9692C16.0789 12.4919 15.5721 12.151 15 12" stroke="#FF0000" stroke-width="1.33333" stroke-linecap="round" stroke-linejoin="round"/>
<path d="M13 4C13.5721 4.14213 14.0792 4.46497 14.4413 4.91762C14.8034 5.37027 15 5.92699 15 6.5C15 7.07301 14.8034 7.62973 14.4413 8.08238C14.0792 8.53503 13.5721 8.85787 13 9" stroke="#FF0000" stroke-width="1.33333" stroke-linecap="round" stroke-linejoin="round"/>
</svg>
