<svg width="16" height="16" viewBox="0 0 16 16" fill="none" xmlns="http://www.w3.org/2000/svg">
<path fill-rule="evenodd" clip-rule="evenodd" d="M8 1.86094C11.3906 1.86094 14.1391 4.60969 14.1391 8C14.1391 11.3903 11.3906 14.1391 8 14.1391C4.60969 14.1391 1.86094 11.3903 1.86094 8C1.86094 4.60969 4.60969 1.86094 8 1.86094ZM8 0C10.2087 0 12.2091 0.895625 13.6569 2.34313C15.1044 3.79094 16 5.79094 16 8C16 10.2091 15.1044 12.2094 13.6569 13.6569C12.2094 15.1044 10.2091 16 8 16C5.79094 16 3.79094 15.1044 2.34313 13.6569C0.895625 12.2091 0 10.2087 0 8C0 5.79094 0.895625 3.79094 2.34313 2.34313C3.79094 0.895625 5.79094 0 8 0ZM13.1025 2.8975C11.7966 1.59188 9.9925 0.784063 8 0.784063C6.00719 0.784063 4.20312 1.59188 2.8975 2.8975C1.59188 4.20312 0.784063 6.00719 0.784063 8C0.784063 9.9925 1.59188 11.7966 2.8975 13.1025C4.20312 14.4081 6.00719 15.2159 8 15.2159C9.99281 15.2159 11.7969 14.4081 13.1025 13.1025C14.4081 11.7969 15.2159 9.99281 15.2159 8C15.2159 6.00719 14.4081 4.20312 13.1025 2.8975ZM8.94219 6.83656C8.92375 6.62719 8.83969 6.46594 8.69031 6.34875C8.58687 6.26781 8.45188 6.21469 8.28656 6.19V7.40406L8.58781 7.47219C8.87438 7.535 9.12875 7.6175 9.35 7.72156C9.57 7.82562 9.75531 7.95062 9.90594 8.09469C10.0566 8.23719 10.1709 8.40375 10.2481 8.59062C10.3256 8.77844 10.3656 8.98906 10.3681 9.22062C10.3656 9.58844 10.2725 9.90312 10.0897 10.1669C9.90594 10.4297 9.64188 10.6322 9.29813 10.7722C9.01125 10.8894 8.67375 10.9572 8.28656 10.9759V11.6344H7.82V10.9756C7.43156 10.9556 7.08625 10.885 6.78469 10.7628C6.42219 10.6175 6.14094 10.3963 5.94094 10.0991C5.73969 9.80188 5.63719 9.42594 5.63156 8.97156H6.97781C6.98844 9.15812 7.03906 9.31531 7.12687 9.43937C7.21625 9.56469 7.33906 9.65938 7.49469 9.72313C7.59375 9.76438 7.70219 9.79219 7.82 9.80719V8.52594L7.40281 8.42906C6.89937 8.31344 6.50344 8.12656 6.21281 7.86812C5.92344 7.60969 5.77969 7.26031 5.78094 6.81906C5.77969 6.45938 5.87687 6.14344 6.07156 5.87281C6.26625 5.6025 6.53531 5.39187 6.88062 5.24C7.16219 5.11687 7.475 5.04375 7.82 5.02094V4.36562H8.28656V5.02C8.6425 5.04156 8.95813 5.11562 9.23281 5.24125C9.56594 5.39437 9.82312 5.60781 10.0072 5.88219C10.1913 6.15687 10.2844 6.47406 10.2884 6.83656H8.94219ZM7.82 6.19C7.73875 6.20188 7.66594 6.22 7.60156 6.24469C7.48031 6.29281 7.38969 6.35812 7.32969 6.43937C7.26844 6.52187 7.23781 6.61656 7.235 6.72188C7.23219 6.81 7.24969 6.88594 7.28844 6.9525C7.32687 7.01906 7.38437 7.07656 7.45875 7.12687C7.53375 7.17781 7.62437 7.22156 7.72937 7.25906C7.75875 7.26937 7.78906 7.27938 7.82 7.28875V6.19ZM8.28656 9.80375C8.37313 9.79094 8.45219 9.77094 8.52375 9.74312C8.65688 9.6925 8.75969 9.62187 8.83156 9.53125C8.90375 9.43937 8.94094 9.33531 8.94219 9.21813C8.94094 9.10875 8.90625 9.01437 8.83969 8.93563C8.77312 8.85688 8.67156 8.78906 8.53438 8.73156C8.46219 8.70094 8.37938 8.67156 8.28656 8.64344V9.80375Z" fill="#9000FF"/>
</svg>
