<svg width="20" height="20" viewBox="0 0 20 20" fill="none" xmlns="http://www.w3.org/2000/svg">
<path fill-rule="evenodd" clip-rule="evenodd" d="M13.6074 4.68975L7.89775 7.58957H9.52147L13.7369 5.4486L14.3558 5.13413L16.1404 7.58957H17.1793C17.4056 7.58957 17.6101 7.66705 17.7587 7.7901C17.9073 7.9143 18 8.08521 18 8.27322V16.3164C18 16.5044 17.9073 16.6753 17.7601 16.7983V16.7995C17.6115 16.9237 17.407 17 17.1806 17H2.82072C2.59441 17 2.38991 16.9237 2.24131 16.7995V16.7983C2.09271 16.6753 2 16.5044 2 16.3175V8.27322C2 8.08521 2.09271 7.91316 2.23995 7.7901C2.38855 7.66591 2.59305 7.58957 2.81936 7.58957H3.16019L12.0245 3.08774C12.1377 3.03076 12.2658 3 12.3981 3C12.4553 3 12.5126 3.0057 12.5685 3.01709C12.7539 3.05469 12.9148 3.15268 13.013 3.28941L13.9168 4.53251L13.6074 4.68975ZM2.803 8.19801C2.77164 8.2265 2.74574 8.2584 2.72665 8.29373V9.28388H17.2706V8.27322C17.2706 8.25157 17.2611 8.2322 17.2447 8.21966H17.2434C17.227 8.20599 17.2038 8.19687 17.1779 8.19687H2.81936C2.81391 8.19687 2.80845 8.19687 2.803 8.19801ZM4.1786 12.652H6.77573V13.4644H4.1786V12.652ZM4.1786 14.5753H11.4383V15.308H4.1786V14.5753ZM13.7532 12.652H16.3504V13.4644H13.7532V12.652ZM10.5617 12.652H13.1588V13.4644H10.5617V12.652ZM7.37014 12.652H9.96728V13.4644H7.37014V12.652ZM17.2706 11.5616H2.72665V16.3164C2.72665 16.338 2.7362 16.3574 2.75392 16.371H2.75528C2.77301 16.3859 2.79618 16.3938 2.81936 16.3938H17.1793C17.2038 16.3938 17.227 16.3847 17.2447 16.371C17.2624 16.3562 17.272 16.3369 17.272 16.3164V11.5616H17.2706Z" fill="#C06101"/>
</svg>
