<svg width="16" height="16" viewBox="0 0 16 16" fill="none" xmlns="http://www.w3.org/2000/svg">
<mask id="mask0_2034_122" style="mask-type:alpha" maskUnits="userSpaceOnUse" x="0" y="0" width="16" height="16">
<g clip-path="url(#clip0_2034_122)">
<path d="M2.97067 6.5999C4.04067 7.2019 5.89333 7.5999 8 7.5999C10.1067 7.5999 11.9593 7.2019 13.0293 6.5999C13.6427 6.94524 14 7.35724 14 7.7999C14 9.01524 11.3133 9.9999 8 9.9999C4.68667 9.9999 2 9.01524 2 7.7999C2 7.35724 2.35667 6.94524 2.97067 6.5999ZM3.37133 9.9999C4.47133 10.4886 6.13667 10.7999 8 10.7999C9.86333 10.7999 11.528 10.4886 12.6287 9.9999C13.4853 10.3799 14 10.8679 14 11.3999C14 12.6152 11.3133 13.5999 8 13.5999C4.68667 13.5999 2 12.6152 2 11.3999C2 10.8679 2.51467 10.3799 3.37133 9.9999ZM8 6.7999C4.68667 6.7999 2 5.81524 2 4.5999C2 3.38457 4.68667 2.3999 8 2.3999C11.3133 2.3999 14 3.38457 14 4.5999C14 5.81524 11.3133 6.7999 8 6.7999Z" fill="black"/>
</g>
</mask>
<g mask="url(#mask0_2034_122)">
<rect width="16" height="16" fill="#FF3466"/>
</g>
<defs>
<clipPath id="clip0_2034_122">
<rect width="16" height="16" fill="white"/>
</clipPath>
</defs>
</svg>
