<svg xmlns="http://www.w3.org/2000/svg" width="18" height="18" viewBox="0 0 48 48">
  <path fill="#FFC107" d="M43.611 20.083H42V20H24v8h11.303C33.826 31.91 29.274 35 24 35c-6.627 0-12-5.373-12-12s5.373-12 12-12c3.059 0 5.842 1.154 7.961 3.039l5.657-5.657C34.789 5.045 29.654 3 24 3 12.954 3 4 11.954 4 23s8.954 20 20 20c10.477 0 19-8.523 19-19 0-1.341-.138-2.651-.389-3.917z"/>
  <path fill="#FF3D00" d="M6.306 14.691l6.571 4.815C14.672 16.108 18.961 13 24 13c3.059 0 5.842 1.154 7.961 3.039l5.657-5.657C34.789 5.045 29.654 3 24 3 16.318 3 9.656 7.337 6.306 14.691z"/>
  <path fill="#4CAF50" d="M24 43c5.17 0 9.86-1.977 13.403-5.197l-6.191-5.238C29.187 34.664 26.751 35 24 35c-5.252 0-9.79-3.366-11.386-8.047l-6.54 5.04C9.381 37.936 16.16 43 24 43z"/>
  <path fill="#1976D2" d="M43.611 20.083H42V20H24v8h11.303c-1.025 3.058-3.24 5.436-6.09 6.565l.001-.001 6.191 5.238C33.196 41.019 38.83 43 44 43c0 0 0 0 0 0 0-10.477-8.523-19-19-19z"/>
</svg>

