<svg width="20" height="20" viewBox="0 0 20 20" fill="none" xmlns="http://www.w3.org/2000/svg">
<path d="M7.75 17.4999V11.5799C7.75 11.1319 7.75 10.9079 7.832 10.7369C7.90168 10.5885 8.01649 10.466 8.16 10.3869C8.32 10.2999 8.53 10.2999 8.95 10.2999H11.05C11.47 10.2999 11.68 10.2999 11.84 10.3869C11.982 10.4639 12.096 10.5869 12.168 10.7369C12.25 10.9069 12.25 11.1319 12.25 11.5799V17.4999M2.5 8.29988L9.28 2.87588C9.538 2.66888 9.667 2.56588 9.81 2.52588C9.93427 2.49105 10.0657 2.49105 10.19 2.52588C10.333 2.56588 10.462 2.66888 10.72 2.87588L17.5 8.29988M4 7.09988V14.9399C4 15.8359 4 16.2839 4.163 16.6259C4.307 16.9269 4.537 17.1719 4.819 17.3259C5.139 17.4999 5.559 17.4999 6.4 17.4999H13.6C14.44 17.4999 14.86 17.4999 15.181 17.3259C15.463 17.1719 15.693 16.9269 15.836 16.6259C16 16.2839 16 15.8359 16 14.9399V7.09988L11.44 3.45188C10.924 3.03888 10.665 2.83188 10.382 2.75188C10.1322 2.68157 9.86781 2.68157 9.618 2.75188C9.335 2.83188 9.076 3.03888 8.56 3.45188L4 7.09988Z" stroke="#44FF00" stroke-width="1.5" stroke-linecap="round" stroke-linejoin="round"/>
</svg>
