<svg width="20" height="20" viewBox="0 0 20 20" fill="none" xmlns="http://www.w3.org/2000/svg">
<g clip-path="url(#clip0_1_1708)">
<path d="M10 2.4999H7.75C4 2.4999 2.5 3.9999 2.5 7.7499V12.2499C2.5 15.9999 4 17.4999 7.75 17.4999H12.25C16 17.4999 17.5 15.9999 17.5 12.2499V9.2499M3.002 15.2129L6.7 12.7299C7.293 12.3319 8.148 12.3769 8.68 12.8349L8.928 13.0519C9.512 13.5549 10.458 13.5549 11.042 13.0519L14.162 10.3749C14.747 9.8719 15.692 9.8719 16.277 10.3749L17.5 11.4249M13.333 3.1219C13.333 1.8259 14.311 1.2949 15.507 1.9429L17.437 2.9869C18.632 3.6359 18.632 4.6969 17.437 5.3459L15.507 6.3899C14.311 7.0379 13.333 6.5069 13.333 5.2099V3.1219ZM9.25 6.9999C9.25 7.39772 9.09196 7.77926 8.81066 8.06056C8.52936 8.34186 8.14782 8.4999 7.75 8.4999C7.35218 8.4999 6.97064 8.34186 6.68934 8.06056C6.40804 7.77926 6.25 7.39772 6.25 6.9999C6.25 6.60208 6.40804 6.22054 6.68934 5.93924C6.97064 5.65793 7.35218 5.4999 7.75 5.4999C8.14782 5.4999 8.52936 5.65793 8.81066 5.93924C9.09196 6.22054 9.25 6.60208 9.25 6.9999Z" stroke="#F3B809" stroke-width="1.5" stroke-linecap="round" stroke-linejoin="round"/>
</g>
<defs>
<clipPath id="clip0_1_1708">
<rect width="20" height="20" fill="white"/>
</clipPath>
</defs>
</svg>
