<svg width="25" height="28" viewBox="0 0 25 28" fill="none" xmlns="http://www.w3.org/2000/svg">
<path d="M4.5 14.3362C5.00226 14.2455 5.51162 14.2 6.022 14.2002C8.087 14.2002 9.981 14.9372 11.454 16.1622M11.7 20.2002H6.1C5.67565 20.2002 5.26869 20.0316 4.96863 19.7316C4.66857 19.4315 4.5 19.0245 4.5 18.6002V5.8002C4.5 5.37585 4.66857 4.96888 4.96863 4.66882C5.26869 4.36877 5.67565 4.2002 6.1 4.2002H18.9C19.3243 4.2002 19.7313 4.36877 20.0314 4.66882C20.3314 4.96888 20.5 5.37585 20.5 5.8002V11.4002M10.02 10.4702C10.2347 10.4702 10.4473 10.4279 10.6457 10.3457C10.8441 10.2636 11.0243 10.1431 11.1761 9.99131C11.3279 9.83949 11.4484 9.65925 11.5305 9.46088C11.6127 9.26252 11.655 9.04991 11.655 8.8352C11.655 8.62048 11.6127 8.40788 11.5305 8.20951C11.4484 8.01114 11.3279 7.8309 11.1761 7.67908C11.0243 7.52725 10.8441 7.40682 10.6457 7.32465C10.4473 7.24249 10.2347 7.2002 10.02 7.2002C9.58637 7.2002 9.1705 7.37245 8.86388 7.67908C8.55726 7.9857 8.385 8.40157 8.385 8.8352C8.385 9.26882 8.55726 9.68469 8.86388 9.99131C9.1705 10.2979 9.58637 10.4702 10.02 10.4702ZM14.666 17.5232C14.214 17.4432 14.214 16.7832 14.666 16.7042C16.303 16.4142 17.605 15.1462 17.96 13.4962L17.988 13.3692C18.0081 13.2736 18.0605 13.1878 18.1362 13.1261C18.212 13.0644 18.3066 13.0306 18.4043 13.0303C18.502 13.0299 18.5968 13.0631 18.673 13.1242C18.7492 13.1853 18.8022 13.2708 18.823 13.3662L18.856 13.5132C19.224 15.1562 20.526 16.4132 22.159 16.7022C22.614 16.7822 22.614 17.4452 22.159 17.5252C20.527 17.8152 19.224 19.0722 18.856 20.7152L18.823 20.8622C18.8021 20.9576 18.749 21.043 18.6727 21.104C18.5965 21.1651 18.5016 21.1981 18.4039 21.1976C18.3062 21.1972 18.2116 21.1632 18.1359 21.1014C18.0602 21.0397 18.008 20.9538 17.988 20.8582L17.96 20.7312C17.605 19.0812 16.303 17.8132 14.666 17.5232Z" stroke="white" stroke-width="1.5" stroke-linecap="round" stroke-linejoin="round"/>
</svg>
