<svg width="132" height="34" viewBox="0 0 132 34" fill="none" xmlns="http://www.w3.org/2000/svg">
<path d="M29 15.4999V21.4999C29 21.8979 28.828 22.2799 28.52 22.5599C28.214 22.8419 27.798 22.9999 27.364 22.9999H17.545C17.111 22.9999 16.695 22.8419 16.388 22.5599C16.2388 22.4262 16.1192 22.2629 16.0367 22.0804C15.9542 21.8979 15.9107 21.7002 15.909 21.4999V19.2499L12.113 21.1249C11.9881 21.1685 11.8551 21.1837 11.7236 21.1694C11.5921 21.155 11.4655 21.1114 11.353 21.0419C11.2456 20.9745 11.1563 20.8818 11.093 20.7719C11.0315 20.6648 10.9994 20.5434 11 20.4199V13.5799C10.9993 13.4568 11.031 13.3358 11.092 13.2289C11.1555 13.1185 11.2451 13.0254 11.353 12.9579C11.4655 12.8882 11.5921 12.8447 11.7236 12.8303C11.8551 12.8159 11.9882 12.8312 12.113 12.8749L15.909 14.7499V12.4999C15.909 12.1019 16.082 11.7199 16.389 11.4399C16.695 11.1579 17.111 10.9999 17.545 10.9999H19.591M23.249 11.2999C22.917 11.2419 22.917 10.7579 23.249 10.6999C23.8406 10.592 24.3866 10.3102 24.8173 9.89057C25.2479 9.47093 25.5438 8.93244 25.667 8.34388L25.687 8.25088C25.759 7.91788 26.226 7.91588 26.3 8.24788L26.325 8.35688C26.4534 8.9426 26.7521 9.47728 27.1836 9.89364C27.6151 10.31 28.1601 10.5895 28.75 10.6969C29.083 10.7569 29.083 11.2429 28.75 11.3019C28.16 11.4094 27.6149 11.689 27.1834 12.1055C26.7519 12.5221 26.4532 13.057 26.325 13.6429L26.301 13.7519C26.226 14.0839 25.759 14.0819 25.687 13.7489L25.667 13.6559C25.5436 13.0675 25.2477 12.5292 24.817 12.1098C24.3863 11.6903 23.8404 11.4077 23.249 11.2999Z" stroke="white" stroke-width="1.5" stroke-linecap="round" stroke-linejoin="round"/>
<path d="M52.0043 10.9091V24H50.1889L43.5348 14.3991H43.4134V24H41.4382V10.9091H43.2663L49.9268 20.5227H50.0483V10.9091H52.0043ZM66.4369 17.4545C66.4369 18.8523 66.1812 20.054 65.6699 21.0597C65.1585 22.0611 64.4575 22.8324 63.5669 23.3736C62.6805 23.9105 61.6727 24.179 60.5435 24.179C59.4099 24.179 58.3979 23.9105 57.5072 23.3736C56.6209 22.8324 55.922 22.0589 55.4106 21.0533C54.8993 20.0476 54.6436 18.848 54.6436 17.4545C54.6436 16.0568 54.8993 14.8572 55.4106 13.8558C55.922 12.8501 56.6209 12.0788 57.5072 11.5419C58.3979 11.0007 59.4099 10.7301 60.5435 10.7301C61.6727 10.7301 62.6805 11.0007 63.5669 11.5419C64.4575 12.0788 65.1585 12.8501 65.6699 13.8558C66.1812 14.8572 66.4369 16.0568 66.4369 17.4545ZM64.481 17.4545C64.481 16.3892 64.3084 15.4922 63.9632 14.7635C63.6223 14.0305 63.1535 13.4766 62.557 13.1016C61.9646 12.7223 61.2935 12.5327 60.5435 12.5327C59.7892 12.5327 59.1159 12.7223 58.5236 13.1016C57.9312 13.4766 57.4625 14.0305 57.1173 14.7635C56.7764 15.4922 56.606 16.3892 56.606 17.4545C56.606 18.5199 56.7764 19.419 57.1173 20.152C57.4625 20.8807 57.9312 21.4347 58.5236 21.8139C59.1159 22.1889 59.7892 22.3764 60.5435 22.3764C61.2935 22.3764 61.9646 22.1889 62.557 21.8139C63.1535 21.4347 63.6223 20.8807 63.9632 20.152C64.3084 19.419 64.481 18.5199 64.481 17.4545ZM69.0795 24V10.9091H71.0546V22.2997H76.9864V24H69.0795ZM79.4196 10.9091H81.8166L85.9842 21.0852H86.1377L90.3053 10.9091H92.7023V24H90.823V14.527H90.7016L86.8408 23.9808H85.2811L81.4203 14.5206H81.2989V24H79.4196V10.9091ZM95.1083 12.6094V10.9091H105.24V12.6094H101.155V24H99.1864V12.6094H95.1083ZM108.149 24.1214C107.8 24.1214 107.499 23.9979 107.248 23.7507C106.996 23.4993 106.871 23.1967 106.871 22.843C106.871 22.4936 106.996 22.1953 107.248 21.9482C107.499 21.6967 107.8 21.571 108.149 21.571C108.499 21.571 108.799 21.6967 109.05 21.9482C109.302 22.1953 109.428 22.4936 109.428 22.843C109.428 23.0774 109.368 23.2926 109.249 23.4886C109.133 23.6804 108.98 23.8338 108.788 23.9489C108.597 24.0639 108.383 24.1214 108.149 24.1214ZM113.427 24H111.33L116.041 10.9091H118.323L123.034 24H120.937L117.236 13.2869H117.134L113.427 24ZM113.778 18.8736H120.579V20.5355H113.778V18.8736ZM127.08 10.9091V24H125.104V10.9091H127.08Z" fill="white"/>
</svg>
