<svg width="20" height="20" viewBox="0 0 20 20" fill="none" xmlns="http://www.w3.org/2000/svg">
<g clip-path="url(#clip0_1_1751)">
<path d="M6.66688 7.5V5.284C6.66688 3.746 7.78588 2.5 9.16688 2.5C10.5469 2.5 11.6669 3.746 11.6669 5.284V5.313M9.49389 7.5H3.97688L2.51488 16.206C2.48871 16.3659 2.49771 16.5295 2.54127 16.6856C2.58483 16.8416 2.66189 16.9862 2.76709 17.1094C2.87229 17.2326 3.00309 17.3314 3.15038 17.3988C3.29766 17.4663 3.45789 17.5008 3.61988 17.5H13.8819C14.5729 17.5 15.0989 16.883 14.9859 16.206L14.8959 15.674M11.6679 9.817L12.3679 7.5L14.9619 7.803L17.4999 11.32L14.1669 13.75L11.6669 9.817H11.6679Z" stroke="#FF00DD" stroke-width="1.5" stroke-linecap="round" stroke-linejoin="round"/>
</g>
<defs>
<clipPath id="clip0_1_1751">
<rect width="20" height="20" fill="white"/>
</clipPath>
</defs>
</svg>
