<svg width="52" height="40" viewBox="0 0 52 40" fill="none" xmlns="http://www.w3.org/2000/svg">
<path d="M25.6401 21.9029L28.9726 18.5692C29.3259 18.1773 29.5215 17.6683 29.5215 17.1406C29.5215 16.613 29.3259 16.104 28.9726 15.7121L24.2115 11.0263C23.8196 10.6731 23.3106 10.4775 22.7829 10.4775C22.2553 10.4775 21.7463 10.6731 21.3544 11.0263L18.0972 14.2835M14.2858 25.7121H14.2961M18.0961 21.9029H18.1052M22.8572 14.2835H22.8675M25.7144 17.1406H25.7246M12.3818 18.0938H20.0001C21.0515 18.0938 21.9052 18.9464 21.9052 19.9978V27.6172C21.9052 28.6686 21.0526 29.5224 20.0001 29.5224H12.3829C11.3315 29.5224 10.4778 28.6686 10.4778 27.6172V19.9978C10.4778 18.9464 11.3292 18.0938 12.3818 18.0938Z" stroke="white" stroke-width="1.71429" stroke-linecap="round" stroke-linejoin="round"/>
</svg>
