<svg width="20" height="20" viewBox="0 0 20 20" fill="none" xmlns="http://www.w3.org/2000/svg">
<path d="M10.442 15.833H5.17499C2.54199 15.833 1.66699 14.378 1.66699 12.917V7.08299C1.66699 4.89399 2.54199 4.16699 5.17499 4.16699H10.442C13.075 4.16699 13.95 4.89399 13.95 7.08299V12.917C13.95 15.106 13.067 15.833 10.442 15.833ZM16.267 13.533L13.95 12.183V7.80999L16.267 6.45899C17.4 5.80099 18.334 6.20199 18.334 7.35899V12.639C18.334 13.795 17.4 14.197 16.267 13.532V13.533Z" stroke="#FF0000" stroke-width="1.5" stroke-linecap="round" stroke-linejoin="round"/>
<path d="M10.0001 9.16699C10.7271 9.16699 11.3161 8.60699 11.3161 7.91699C11.3161 7.22699 10.7271 6.66699 10.0001 6.66699C9.27406 6.66699 8.68506 7.22699 8.68506 7.91699C8.68506 8.60699 9.27406 9.16699 10.0001 9.16699Z" stroke="#FF0000" stroke-width="1.5" stroke-linecap="round" stroke-linejoin="round"/>
</svg>
