<svg width="33" height="33" viewBox="0 0 33 33" fill="none" xmlns="http://www.w3.org/2000/svg">
<g clip-path="url(#clip0_0_1127)">
<rect x="0.190186" y="0.589844" width="32" height="32" rx="8" fill="white" fill-opacity="0.12"/>
<path d="M10.9375 7.25684H6.27087L21.4375 25.9235H26.1041L10.9375 7.25684Z" stroke="white" stroke-width="1.75" stroke-linecap="round"/>
<path d="M24.3542 7.25684L24.9926 7.85529L26.3739 6.38184H24.3542V7.25684ZM23.7709 7.25684V6.38184H23.3918L23.1326 6.65838L23.7709 7.25684ZM17.1667 14.9235L16.4877 15.4752L17.1197 16.2531L17.8051 15.5219L17.1667 14.9235ZM16.8959 14.5902L16.2575 13.9918L15.7351 14.5491L16.2169 15.1419L16.8959 14.5902ZM14.3959 17.2568L15.075 16.7051L14.443 15.9272L13.7575 16.6584L14.3959 17.2568ZM6.27093 25.9235L5.63258 25.3251L4.25122 26.7984H6.27093V25.9235ZM6.85426 25.9235V26.7984H7.23334L7.49261 26.5219L6.85426 25.9235ZM14.6667 17.5902L15.3051 18.1886L15.8275 17.6312L15.3458 17.0384L14.6667 17.5902ZM24.3542 6.38184H23.7709V8.13184H24.3542V6.38184ZM17.8051 15.5219L24.9926 7.85529L23.7159 6.65838L16.5285 14.3251L17.8051 15.5219ZM17.8458 14.3718L17.575 14.0384L16.2169 15.1419L16.4877 15.4752L17.8458 14.3718ZM23.1326 6.65838L16.2575 13.9918L17.5343 15.1886L24.4093 7.85529L23.1326 6.65838ZM13.7575 16.6584L5.63258 25.3251L6.90927 26.5219L15.0343 17.8552L13.7575 16.6584ZM6.27093 26.7984H6.85426V25.0486H6.27093V26.7984ZM7.49261 26.5219L15.3051 18.1886L14.0285 16.9918L6.21591 25.3251L7.49261 26.5219ZM13.7169 17.8086L13.9877 18.1419L15.3458 17.0384L15.075 16.7051L13.7169 17.8086Z" fill="white"/>
</g>
<defs>
<clipPath id="clip0_0_1127">
<rect x="0.190186" y="0.589844" width="32" height="32" rx="8" fill="white"/>
</clipPath>
</defs>
</svg>
