<svg width="25" height="25" viewBox="0 0 25 25" fill="none" xmlns="http://www.w3.org/2000/svg">
<path d="M21.5 10.6999V16.6999C21.5 17.0979 21.328 17.4799 21.02 17.7599C20.714 18.0419 20.298 18.1999 19.864 18.1999H10.045C9.61101 18.1999 9.19501 18.0419 8.88801 17.7599C8.73884 17.6263 8.6192 17.463 8.53672 17.2805C8.45424 17.0979 8.41075 16.9002 8.40901 16.6999V14.4499L4.61301 16.3249C4.48822 16.3687 4.35522 16.3841 4.22374 16.3699C4.09225 16.3557 3.96559 16.3123 3.85301 16.2429C3.74546 16.1753 3.65618 16.0822 3.59301 15.9719C3.53151 15.8649 3.49942 15.7434 3.50001 15.6199V8.77995C3.49929 8.65689 3.53103 8.53583 3.59201 8.42895C3.65546 8.31857 3.7451 8.2255 3.85301 8.15795C3.96549 8.08832 4.09211 8.04472 4.22361 8.03036C4.35511 8.016 4.48816 8.03124 4.61301 8.07495L8.40901 9.94995V7.69995C8.40901 7.30195 8.58201 6.91995 8.88901 6.63995C9.19501 6.35795 9.61101 6.19995 10.045 6.19995H12.091M15.749 6.50095C15.417 6.44195 15.417 5.95795 15.749 5.89895C16.3404 5.79112 16.8863 5.5095 17.317 5.09005C17.7477 4.6706 18.0436 4.13233 18.167 3.54395L18.187 3.45095C18.259 3.11795 18.726 3.11595 18.8 3.44895L18.825 3.55695C18.9534 4.14267 19.2521 4.67734 19.6836 5.09371C20.1151 5.51008 20.6601 5.78954 21.25 5.89695C21.583 5.95695 21.583 6.44395 21.25 6.50295C20.6601 6.61035 20.1151 6.88981 19.6836 7.30618C19.2521 7.72255 18.9534 8.25723 18.825 8.84295L18.801 8.95195C18.726 9.28395 18.259 9.28195 18.187 8.94895L18.167 8.85595C18.0436 8.26757 17.7477 7.7293 17.317 7.30985C16.8863 6.89039 16.3404 6.60878 15.749 6.50095Z" stroke="white" stroke-width="1.5" stroke-linecap="round" stroke-linejoin="round"/>
</svg>
