<svg width="20" height="20" viewBox="0 0 20 20" fill="none" xmlns="http://www.w3.org/2000/svg">
<path d="M1.33596 13.556V2.44598C1.3357 2.29997 1.36425 2.15533 1.41998 2.02036C1.4757 1.88539 1.55751 1.76275 1.66072 1.65945C1.76392 1.55615 1.8865 1.47423 2.02141 1.41838C2.15633 1.36253 2.30094 1.33385 2.44696 1.33398H5.46796C5.97796 1.33398 6.42296 1.68098 6.54596 2.17598L6.89096 3.55598H13.558C14.172 3.55598 14.669 4.05398 14.669 4.66698V13.557C14.669 13.8514 14.552 14.1337 14.3438 14.3419C14.1357 14.55 13.8534 14.667 13.559 14.667H2.44596C2.15148 14.667 1.86904 14.5501 1.66072 14.3419C1.45239 14.1338 1.33523 13.8515 1.33496 13.557L1.33596 13.556Z" stroke="#8459EB" stroke-width="1.5" stroke-linecap="round" stroke-linejoin="round"/>
</svg>
