<svg width="72" height="72" viewBox="0 0 72 72" fill="none" xmlns="http://www.w3.org/2000/svg">
<g clip-path="url(#clip0_0_633)">
<path d="M36 1.5C45.5264 1.5 54.1497 5.36064 60.3945 11.6055C66.6394 17.8503 70.5 26.4736 70.5 36C70.5 45.5264 66.6394 54.1497 60.3945 60.3945C54.1497 66.6394 45.5264 70.5 36 70.5C26.4736 70.5 17.8503 66.6394 11.6055 60.3945C5.36064 54.1497 1.5 45.5264 1.5 36C1.5 26.4736 5.36064 17.8503 11.6055 11.6055C17.8503 5.36064 26.4736 1.5 36 1.5ZM35.999 46.5225C33.1385 46.5227 30.8196 48.8414 30.8193 51.7021C30.8193 54.5632 33.1386 56.8826 35.999 56.8828C38.8598 56.8828 41.1797 54.5631 41.1797 51.7021C41.1794 48.8415 38.8599 46.5225 35.999 46.5225ZM35.9697 15.1172C35.3223 15.1166 34.662 15.1768 34.041 15.3096C32.1568 15.7112 29.977 16.9463 29.9033 19.5322V20.0625C29.9337 24.0624 30.6598 31.7672 31.2402 37.5527L31.7578 42.6562C31.8303 43.8606 32.4055 44.8192 33.2354 45.4492C34.0507 46.068 35.057 46.3371 35.998 46.3369C36.9393 46.3366 37.9456 46.0673 38.7607 45.4492C39.5971 44.815 40.1761 43.8468 40.2422 42.6289L40.2441 42.6299L42.0859 19.9346L42.0898 19.8721L42.0957 19.7158L42.0967 19.6865V19.6572C42.0976 16.9976 39.816 15.7225 37.9004 15.3145H37.9014C37.2849 15.1828 36.625 15.1184 35.9717 15.1172H35.9697Z" stroke="white" stroke-width="3"/>
</g>
<defs>
<clipPath id="clip0_0_633">
<rect width="72" height="72" fill="white"/>
</clipPath>
</defs>
</svg>
